<svg id="Layer_1" data-name="Layer 1" xmlns="http://www.w3.org/2000/svg" viewBox="0 0 481.62 104.97"><defs><style>.cls-1{fill:#fff;}.cls-2{fill:#e5007d;}</style></defs><title>logo-just-arrived-white</title><path class="cls-1" d="M444.69,412.89c-1.16-.92-12.75-35-12.75-35H420.69l-11.75,34.41s0.13,0.75-3,.88v9.67h7.5s3.42,0.08,5.25-5.67c0.25-.8.86-2.57,1.29-4h12.67l1.29,4.25s2,5.42,6.13,5.42h7v-9.5A3.06,3.06,0,0,1,444.69,412.89Zm-22-8.92c2-6.81,3.91-12.87,3.91-12.87L430.2,404h-7.51Z" transform="translate(-159 -347)"/><path class="cls-1" d="M450.19,390.93v8.79h3.5s0.42-.21.42,2.08v21.09h10.42V408.14s-0.58-7.5,10.83-7.17V390s-7.83-.92-11.17,8.42V394s-0.42-3.13-4.42-3h-9.58v0Z" transform="translate(-159 -347)"/><path class="cls-1" d="M480,390.93v8.79h3.5s0.42-.21.42,2.08v21.09h10.42V408.14s-0.58-7.5,10.83-7.17V390s-7.83-.92-11.17,8.42V394s-0.42-3.13-4.42-3H480v0Z" transform="translate(-159 -347)"/><rect class="cls-1" x="355.02" y="30.94" width="8.92" height="8.67"/><path class="cls-1" d="M509.27,390.93v8.88h1.67s2.17-.17,2.17,1.33v17.25s0.08,4.5,3.58,4.5h10.75v-9.17h-3a1.89,1.89,0,0,1-1.25-1.75V394.19s0-3.29-2.75-3.29C520.44,390.93,509.19,391.06,509.27,390.93Z" transform="translate(-159 -347)"/><path class="cls-1" d="M530.61,390.93v8.6s1.92,0.1,2.08.69,8.58,22.67,8.58,22.67h12.58l8-22.58s0.25-.58,2.31-0.58v-8.79h-7.58s-2-.54-3.67,4.38-5.25,17.1-5.25,17.1l-6.08-18.85s-1.08-2.63-3.08-2.63S530.73,390.81,530.61,390.93Z" transform="translate(-159 -347)"/><path class="cls-1" d="M593.77,410.82s-4.42,4.21-9.83,3.25c-5.68-1-5.82-5.42-5.82-5.42h20.15s2.67-18.74-14.5-19.25c-14.36-.43-17.08,13.44-16.12,20,0.75,5.17,4.64,12.81,15.21,13.71a21.82,21.82,0,0,0,15.67-5.25ZM583.6,397.74a4.63,4.63,0,0,1,4.5,4.08h-10a5.26,5.26,0,0,1,5.51-4.09h0Z" transform="translate(-159 -347)"/><path class="cls-1" d="M637.52,413.7a1.81,1.81,0,0,1-.67-1.5V382.12a4.26,4.26,0,0,0-3.83-4.18H622.86s-0.17,9.18-.08,9.09h2.58a2.11,2.11,0,0,1,1.42,1.83v3.58s-4.08-4.33-12.83-1.92-12.67,15-8.58,25,18.58,9.25,21.75,3.42a4.57,4.57,0,0,0,4.5,3.92h9v-9.17h-3.1Zm-17.25.67c-3.7,0-5.92-3.07-5.92-7.58s2.75-7.75,6.46-7.75,6.13,3.24,6.13,7.75-3,7.58-6.67,7.58h0Z" transform="translate(-159 -347)"/><path class="cls-2" d="M248.25,370.47l-39-22.47a7.5,7.5,0,0,0-7.5,0l-39,22.47A7.5,7.5,0,0,0,159,377v45a7.5,7.5,0,0,0,3.75,6.51l39,22.47a7.5,7.5,0,0,0,7.5,0l39-22.47A7.5,7.5,0,0,0,252,422V377A7.5,7.5,0,0,0,248.25,370.47Zm-71.4,35.72a6.72,6.72,0,1,1,6.72-6.72h0a6.72,6.72,0,0,1-6.72,6.69h0v0Zm28.71,17.4a24,24,0,0,1-22.74-16.5,9.6,9.6,0,0,0,0-15,24,24,0,0,1,45.27,0,9.6,9.6,0,0,0,0,15,24,24,0,0,1-22.53,16.47h0v0Zm28.71-17.4a6.72,6.72,0,1,1,6.72-6.72h0a6.72,6.72,0,0,1-6.6,6.69Zm-28.71-20.25a13.74,13.74,0,1,0,13.74,13.74h0a13.74,13.74,0,0,0-13.69-13.79h0Z" transform="translate(-159 -347)"/><path class="cls-1" d="M303.4,377.94a3,3,0,0,0-.46,0H289.52v6.19H300.4a0.73,0.73,0,0,1,.62.31v26c0,0.9-.59,6.57-6.25,6.57a6.47,6.47,0,0,1-4.94-1.73c-2-2.11-2.16-5.92-2.07-8h-6c-0.13,3.71.43,8.72,3.73,12.17a12.39,12.39,0,0,0,9.28,3.76c9.26,0,12.06-8.27,12.25-12.54V383C307,380,305.19,378.19,303.4,377.94Z" transform="translate(-159 -347)"/><path class="cls-1" d="M401.35,416.91c-3.11.18-5.42-.36-6.52-1.48A3.83,3.83,0,0,1,394,413V395.82h7v-5.11h-7v-8.89h-6v8.89h-4.32v5.11H388V412c0,1.09-.16,4.73,2.35,7.44,2.14,2.32,5.44,3.49,9.82,3.49h1.5V417Z" transform="translate(-159 -347)"/><path class="cls-1" d="M367.7,403.38c-5-1.86-6.56-2.82-6.29-4.84a3.57,3.57,0,0,1,1.45-2.64,7.24,7.24,0,0,1,5.19-.75,4.43,4.43,0,0,1,3.66,3.71h6.07c0-4.84-3.66-8.54-8.46-9.58a13.07,13.07,0,0,0-9.9,1.7,9.55,9.55,0,0,0-4,6.74c-1,7.12,5.71,9.62,10.13,11.27,2.47,0.93,5.22,2,5.89,3.26a3.19,3.19,0,0,1,0,3.66c-0.62.87-1.77,1.48-3.67,1.64-5.07.43-8.51-2.91-10-4.81l-4.14,4.37a17.55,17.55,0,0,0,13.23,6.08h1.42c5-.42,7.17-2.49,8.37-4.3,2.42-3.62,1-7.57.25-9.23C375.19,406.19,371.41,404.77,367.7,403.38Z" transform="translate(-159 -347)"/><path class="cls-1" d="M346,417a0.75,0.75,0,0,1-.67-0.73V390.66h-6V409a8.12,8.12,0,0,1-1.09,3.39c-1.52,2.37-4.45,4.76-9.61,4.58-4.17-.14-4.81-4.82-4.79-5.79V395.73a5.44,5.44,0,0,0-1.6-4.25,3.82,3.82,0,0,0-2.72-.83h-5.47v5.76h3.79v14.67c0,0.62-.09,6.15,3.57,9.51a9.29,9.29,0,0,0,6.46,2.6,12.25,12.25,0,0,0,1.42,0,16.27,16.27,0,0,0,10.09-4.77c0.29,2.67,2,4.51,4.26,4.51h6.23v-6H346Z" transform="translate(-159 -347)"/></svg>