<?xml version="1.0" encoding="utf-8"?>
<!-- Generator: Adobe Illustrator 21.1.0, SVG Export Plug-In . SVG Version: 6.00 Build 0)  -->
<svg version="1.1" id="Layer_1" xmlns="http://www.w3.org/2000/svg" xmlns:xlink="http://www.w3.org/1999/xlink" x="0px" y="0px"
	 viewBox="0 0 45 45" style="enable-background:new 0 0 45 45;" xml:space="preserve">
<style type="text/css">
	.st0{fill:#E30A7D;}
	.st1{fill:#E92C93;}
	.st2{fill:#FFFFFF;}
</style>
<g>
	<g>
		<path class="st0" d="M36.5,42.5h-28c-3.3,0-6-2.7-6-6v-28c0-3.3,2.7-6,6-6h28c3.3,0,6,2.7,6,6v28C42.5,39.8,39.8,42.5,36.5,42.5z"
			/>
		<path class="st1" d="M36.5,43.5h-28c-3.9,0-7-3.1-7-7v-28c0-3.9,3.1-7,7-7h28c3.9,0,7,3.1,7,7v28C43.5,40.4,40.4,43.5,36.5,43.5z
			 M8.5,3.5c-2.8,0-5,2.2-5,5v28c0,2.8,2.2,5,5,5h28c2.8,0,5-2.2,5-5v-28c0-2.8-2.2-5-5-5H8.5z"/>
	</g>
	<g>
		<path class="st2" d="M31.5,22v10.1c0,2.1-2.3,3.4-4.1,2.4l-8.8-5.1l-8.8-5.1c-1.8-1.1-1.8-3.7,0-4.8l8.8-5.1l8.8-5.1
			c1.8-1.1,4.1,0.3,4.1,2.4V22z"/>
		<path class="st1" d="M28.8,36.4c-0.7,0-1.5-0.2-2.1-0.6L9.1,25.7C7.8,24.9,7,23.5,7,22c0-1.5,0.8-2.9,2.1-3.7L26.6,8.2
			c1.3-0.8,2.9-0.8,4.2,0C32.2,9,33,10.4,33,11.9v20.2c0,1.5-0.8,2.9-2.1,3.7C30.2,36.2,29.5,36.4,28.8,36.4z M28.7,10.6
			c-0.2,0-0.4,0-0.6,0.2L10.6,20.9C10.1,21.2,10,21.8,10,22c0,0.2,0.1,0.8,0.6,1.1l17.5,10.1c0.6,0.3,1.1,0.1,1.2,0
			c0.2-0.1,0.6-0.4,0.6-1.1V11.9c0-0.6-0.4-1-0.6-1.1C29.3,10.7,29,10.6,28.7,10.6z"/>
	</g>
</g>
</svg>
