<?xml version="1.0" encoding="utf-8"?>
<!-- Generator: Adobe Illustrator 21.1.0, SVG Export Plug-In . SVG Version: 6.00 Build 0)  -->
<svg version="1.1" id="Layer_1" xmlns="http://www.w3.org/2000/svg" xmlns:xlink="http://www.w3.org/1999/xlink" x="0px" y="0px"
	 viewBox="0 0 28 43.2" style="enable-background:new 0 0 28 43.2;" xml:space="preserve">
<style type="text/css">
	.st0{fill:#E30A7D;stroke:#E30A7D;stroke-miterlimit:10;}
	.st1{fill:#222531;}
</style>
<g>
	<title>2</title>
	<line class="st0" x1="24.9" y1="39.4" x2="3.1" y2="39.4"/>
	<g>
		<polygon class="st1" points="0.8,31.6 0,31.6 0,9.7 5.7,9.7 5.7,10.5 0.8,10.5 		"/>
		<rect x="2.6" y="12.5" class="st1" width="0.8" height="16.8"/>
		<rect x="4.7" y="12.5" class="st1" width="0.8" height="16.8"/>
		<g>
			<rect x="9.2" y="3.3" class="st1" width="0.8" height="2.9"/>
			<rect x="11.4" y="3.3" class="st1" width="0.8" height="2.9"/>
			<rect x="13.6" y="3.3" class="st1" width="0.8" height="2.9"/>
			<rect x="15.7" y="3.3" class="st1" width="0.8" height="2.9"/>
			<rect x="17.9" y="3.3" class="st1" width="0.8" height="2.9"/>
		</g>
		<g>
			<rect x="9.2" y="7.3" class="st1" width="0.8" height="2.9"/>
			<rect x="11.4" y="7.3" class="st1" width="0.8" height="2.9"/>
			<rect x="13.6" y="7.3" class="st1" width="0.8" height="2.9"/>
			<rect x="15.7" y="7.3" class="st1" width="0.8" height="2.9"/>
			<rect x="17.9" y="7.3" class="st1" width="0.8" height="2.9"/>
		</g>
		<g>
			<rect x="9.2" y="11.3" class="st1" width="0.8" height="2.9"/>
			<rect x="11.4" y="11.3" class="st1" width="0.8" height="2.9"/>
			<rect x="13.6" y="11.3" class="st1" width="0.8" height="2.9"/>
			<rect x="15.7" y="11.3" class="st1" width="0.8" height="2.9"/>
			<rect x="17.9" y="11.3" class="st1" width="0.8" height="2.9"/>
		</g>
		<g>
			<rect x="9.2" y="15.3" class="st1" width="0.8" height="2.9"/>
			<rect x="11.4" y="15.3" class="st1" width="0.8" height="2.9"/>
			<rect x="13.6" y="15.3" class="st1" width="0.8" height="2.9"/>
			<rect x="15.7" y="15.3" class="st1" width="0.8" height="2.9"/>
			<rect x="17.9" y="15.3" class="st1" width="0.8" height="2.9"/>
		</g>
		<g>
			<rect x="9.2" y="19.3" class="st1" width="0.8" height="2.9"/>
			<rect x="11.4" y="19.3" class="st1" width="0.8" height="2.9"/>
			<rect x="13.6" y="19.3" class="st1" width="0.8" height="2.9"/>
			<rect x="15.7" y="19.3" class="st1" width="0.8" height="2.9"/>
			<rect x="17.9" y="19.3" class="st1" width="0.8" height="2.9"/>
		</g>
		<polygon class="st1" points="28,31.6 27.2,31.6 27.2,14.9 22.3,14.9 22.3,14.1 28,14.1 		"/>
		<rect x="24.6" y="16.9" class="st1" width="0.8" height="12.5"/>
		<rect x="22.4" y="16.9" class="st1" width="0.8" height="12.5"/>
		<polygon class="st1" points="20.8,31.6 20,31.6 20,1.6 7.9,1.6 7.9,31.6 7.1,31.6 7.1,0.8 20.8,0.8 		"/>
		<polygon class="st1" points="17.3,31.6 16.5,31.6 16.5,23.7 11.5,23.7 11.5,31.6 10.6,31.6 10.6,22.9 17.3,22.9 		"/>
	</g>
</g>
</svg>
