<svg id="Layer_1" data-name="Layer 1" xmlns="http://www.w3.org/2000/svg" viewBox="0 0 29.9 24.94"><defs><style>.cls-1{fill:#222531;}.cls-2{fill:#fff;}</style></defs><title>calendar</title><path class="cls-1" d="M29.95,25.16H.05V3.35h29.9ZM.87,24.34H29.13V4.17H.87Z" transform="translate(-0.05 -0.22)"/><rect class="cls-1" x="0.41" y="3.54" width="29.08" height="6.38"/><rect class="cls-2" x="6.02" y="0.41" width="2.01" height="6.32"/><path class="cls-1" d="M8.49,7.36H5.66V.22H8.49Zm-2-.82H7.67V1H6.48Z" transform="translate(-0.05 -0.22)"/><rect class="cls-2" x="21.87" y="0.41" width="2.01" height="6.32"/><path class="cls-1" d="M24.34,7.36H21.51V.22h2.83Zm-2-.82h1.19V1H22.33Z" transform="translate(-0.05 -0.22)"/><rect class="cls-1" x="0.41" y="12.95" width="29.08" height="0.82"/><rect class="cls-1" x="0.41" y="16.67" width="29.08" height="0.82"/><rect class="cls-1" x="0.41" y="20.4" width="29.08" height="0.82"/><rect class="cls-1" x="24.26" y="9.92" width="0.82" height="14.61"/><rect class="cls-1" x="19.4" y="9.92" width="0.82" height="14.61"/><rect class="cls-1" x="14.54" y="9.92" width="0.82" height="14.61"/><rect class="cls-1" x="9.68" y="9.92" width="0.82" height="14.61"/><rect class="cls-1" x="4.82" y="9.92" width="0.82" height="14.61"/></svg>