<?xml version="1.0" encoding="utf-8"?>
<!-- Generator: Adobe Illustrator 21.1.0, SVG Export Plug-In . SVG Version: 6.00 Build 0)  -->
<svg version="1.1" id="Layer_1" xmlns="http://www.w3.org/2000/svg" xmlns:xlink="http://www.w3.org/1999/xlink" x="0px" y="0px"
	 viewBox="0 0 66.2 50.2" style="enable-background:new 0 0 66.2 50.2;" xml:space="preserve">
<style type="text/css">
	.st0{opacity:0.75;fill:#E61688;}
</style>
<path class="st0" d="M25.9,49.7c-2.1,0-4.1-0.7-5.9-2c-0.3-0.2-0.6-0.5-0.8-0.7l-0.1-0.1L3.5,31.1c-1.8-1.8-2.8-4.2-2.8-6.7
	c0-2.5,1-4.9,2.8-6.7c1.8-1.8,4.2-2.8,6.7-2.8c0,0,0,0,0,0c2.5,0,4.9,1,6.7,2.8l9.1,9.1L49.4,3.4c3.7-3.7,9.7-3.7,13.4,0l0,0
	c1.8,1.8,2.8,4.2,2.8,6.7s-1,4.9-2.8,6.7L32.6,46.9C30.8,48.7,28.4,49.7,25.9,49.7z M22.8,43.4c0.1,0.1,0.2,0.2,0.3,0.3
	c1.7,1.4,4.1,1.3,5.7-0.2l0,0l0.2-0.2l30-30c0.8-0.8,1.3-2,1.3-3.2c0-1.2-0.5-2.3-1.3-3.2c-1.7-1.7-4.6-1.7-6.3,0l-27,27L13.3,21.3
	c-0.8-0.8-2-1.3-3.2-1.3c-1.2,0-2.3,0.5-3.2,1.3c-0.8,0.8-1.3,2-1.3,3.2c0,1.2,0.5,2.3,1.3,3.2L22.8,43.4z"/>
</svg>
