<?xml version="1.0" encoding="utf-8"?>
<!-- Generator: Adobe Illustrator 21.1.0, SVG Export Plug-In . SVG Version: 6.00 Build 0)  -->
<svg version="1.1" id="Layer_1" xmlns="http://www.w3.org/2000/svg" xmlns:xlink="http://www.w3.org/1999/xlink" x="0px" y="0px"
	 viewBox="0 0 20 30" style="enable-background:new 0 0 20 30;" xml:space="preserve">
<style type="text/css">
	.st0{fill:#DEDFE2;}
</style>
<path class="st0" d="M2.1,2.2c-1.7,1.7-1.7,4.4,0,6l6.8,6.8l-6.7,6.7c-1.7,1.7-1.7,4.4,0,6c1.7,1.7,4.4,1.7,6,0l9.7-9.7c0,0,0,0,0,0
	c0.1-0.1,0.2-0.2,0.3-0.4c1.3-1.7,1.2-4.1-0.3-5.7c0,0,0,0,0,0L8.1,2.2C6.4,0.6,3.7,0.6,2.1,2.2z"/>
</svg>
