<?xml version="1.0" encoding="utf-8"?>
<!-- Generator: Adobe Illustrator 21.1.0, SVG Export Plug-In . SVG Version: 6.00 Build 0)  -->
<svg version="1.1" id="Layer_1" xmlns="http://www.w3.org/2000/svg" xmlns:xlink="http://www.w3.org/1999/xlink" x="0px" y="0px"
	 viewBox="0 0 20 30" style="enable-background:new 0 0 20 30;" xml:space="preserve">
<style type="text/css">
	.st0{fill:#DEDFE2;}
</style>
<path class="st0" d="M17.9,27.8c1.7-1.7,1.7-4.4,0-6l-6.8-6.8l6.7-6.7c1.7-1.7,1.7-4.4,0-6c-1.7-1.7-4.4-1.7-6,0l-9.7,9.7
	c0,0,0,0,0,0C2,12,1.8,12.2,1.7,12.3C0.4,14,0.5,16.4,2.1,18c0,0,0,0,0,0l9.8,9.8C13.6,29.4,16.3,29.4,17.9,27.8z"/>
</svg>
