<?xml version="1.0" encoding="utf-8"?>
<!-- Generator: Adobe Illustrator 21.1.0, SVG Export Plug-In . SVG Version: 6.00 Build 0)  -->
<svg version="1.1" id="Layer_1" xmlns="http://www.w3.org/2000/svg" xmlns:xlink="http://www.w3.org/1999/xlink" x="0px" y="0px"
	 viewBox="0 0 28 43.2" style="enable-background:new 0 0 28 43.2;" xml:space="preserve">
<style type="text/css">
	.st0{fill:#E30A7D;stroke:#E30A7D;stroke-miterlimit:10;}
	.st1{fill:none;stroke:#222531;stroke-miterlimit:10;}
	.st2{fill:#222531;}
	.st3{fill:#FFFFFF;stroke:#222531;stroke-miterlimit:10;}
</style>
<g>
	<line class="st0" x1="26.3" y1="38.8" x2="1.7" y2="38.8"/>
	<g>
		<rect x="1" y="8.5" class="st1" width="26" height="27.3"/>
		<rect x="1" y="8.5" class="st2" width="26" height="8.3"/>
		<g>
			<rect x="8.3" y="4.4" class="st3" width="2.6" height="8.2"/>
			<rect x="17.1" y="4.4" class="st3" width="2.6" height="8.2"/>
		</g>
	</g>
	<g>
		<path class="st2" d="M6.7,30.5h2.5v-7.2c0-0.3,0-0.7,0-0.7h0c0,0-0.1,0.3-0.5,0.6l-1,1l-0.9-1l2.7-2.6h1.4v9.8h2.4v1.4H6.7V30.5z"
			/>
		<path class="st2" d="M14.9,29.3c0,0,1.1,1.3,2.8,1.3c1.2,0,2.2-0.8,2.2-2c0-1.2-1.1-2-2.4-2h-0.8l-0.3-0.8l2.3-2.9
			c0.3-0.5,0.6-0.7,0.6-0.7v0c0,0-0.3,0-0.9,0h-2.1c-0.2,0-0.3,0.1-0.3,0.3v0.7h-1.5v-1.4c0-0.7,0.3-1,1-1h5.9v1l-2.9,3.5
			c1.5,0.2,3.2,1.1,3.2,3.3c0,1.9-1.5,3.5-3.8,3.5c-2.3,0-3.7-1.6-3.7-1.6L14.9,29.3z"/>
	</g>
</g>
</svg>
