<?xml version="1.0" encoding="utf-8"?>
<!-- Generator: Adobe Illustrator 21.1.0, SVG Export Plug-In . SVG Version: 6.00 Build 0)  -->
<svg version="1.1" id="Layer_1" xmlns="http://www.w3.org/2000/svg" xmlns:xlink="http://www.w3.org/1999/xlink" x="0px" y="0px"
	 viewBox="0 0 89.8 99.2" style="enable-background:new 0 0 89.8 99.2;" xml:space="preserve">
<style type="text/css">
	.st0{fill:#F9FAFB;}
</style>
<g>
	<rect x="18.7" y="40.9" class="st0" width="52.4" height="2.7"/>
	<g>
		<rect x="29.9" y="33.6" class="st0" width="30.1" height="2.7"/>
	</g>
	<rect x="29.9" y="48.2" class="st0" width="30.1" height="2.7"/>
	<rect x="18.7" y="55.5" class="st0" width="52.4" height="2.7"/>
	<rect x="29.9" y="62.9" class="st0" width="30.1" height="2.7"/>
</g>
<path class="st0" d="M44.9,96.7c-1.7,0-3.4-0.4-4.9-1.3L7.7,76.8c-3-1.8-4.9-5-4.9-8.5V30.9c0-3.5,1.9-6.8,4.9-8.5L40,3.7
	c3-1.8,6.8-1.8,9.9,0l32.3,18.6c3,1.8,4.9,5,4.9,8.5v37.3c0,3.5-1.9,6.8-4.9,8.5L49.8,95.4C48.3,96.3,46.6,96.7,44.9,96.7z
	 M44.9,6.6c-1,0-2,0.3-2.9,0.8L9.7,26c-1.8,1-2.9,2.9-2.9,5v37.3c0,2,1.1,3.9,2.9,5L42,91.8c1.8,1,4,1,5.7,0l32.3-18.6
	c1.8-1,2.9-2.9,2.9-5V30.9c0-2-1.1-3.9-2.9-5L47.8,7.3C46.9,6.8,45.9,6.6,44.9,6.6z"/>
</svg>
