<?xml version="1.0" encoding="utf-8"?>
<!-- Generator: Adobe Illustrator 21.1.0, SVG Export Plug-In . SVG Version: 6.00 Build 0)  -->
<svg version="1.1" id="Layer_1" xmlns="http://www.w3.org/2000/svg" xmlns:xlink="http://www.w3.org/1999/xlink" x="0px" y="0px"
	 viewBox="0 0 95.7 106.3" style="enable-background:new 0 0 95.7 106.3;" xml:space="preserve">
<style type="text/css">
	.st0{fill:#F9FAFB;}
</style>
<g>
	<rect x="21.6" y="44.5" class="st0" width="52.4" height="2.7"/>
	<g>
		<rect x="32.8" y="37.2" class="st0" width="30.1" height="2.7"/>
	</g>
	<rect x="32.8" y="51.8" class="st0" width="30.1" height="2.7"/>
	<rect x="21.6" y="59.1" class="st0" width="52.4" height="2.7"/>
	<rect x="32.8" y="66.5" class="st0" width="30.1" height="2.7"/>
</g>
<path class="st0" d="M47.8,100.3c-1.7,0-3.4-0.4-4.9-1.3L10.6,80.4c-3-1.8-4.9-5-4.9-8.5V34.5c0-3.5,1.9-6.8,4.9-8.5L42.9,7.3
	c3-1.8,6.8-1.8,9.9,0l32.3,18.6c3,1.8,4.9,5,4.9,8.5v37.3c0,3.5-1.9,6.8-4.9,8.5L52.7,99C51.2,99.9,49.5,100.3,47.8,100.3z
	 M47.8,10.2c-1,0-2,0.3-2.9,0.8L12.6,29.6c-1.8,1-2.9,2.9-2.9,5v37.3c0,2,1.1,3.9,2.9,5l32.3,18.5c1.8,1,4,1,5.7,0l32.3-18.6
	c1.8-1,2.9-2.9,2.9-5V34.5c0-2-1.1-3.9-2.9-5L50.7,10.9C49.8,10.4,48.8,10.2,47.8,10.2z"/>
</svg>
