<svg id="Layer_1" data-name="Layer 1" xmlns="http://www.w3.org/2000/svg" viewBox="0 0 34.83 34.83"><defs><style>.cls-1{fill:#e30a7d;}.cls-2{fill:#e93a9d;}.cls-3{fill:#fff;}</style></defs><title>Share 2</title><path class="cls-1" d="M12.41.76h9.83A12.34,12.34,0,0,1,34.58,13.11v9.31A12.34,12.34,0,0,1,22.24,34.76H12.93A12.34,12.34,0,0,1,.58,22.42V12.59A11.83,11.83,0,0,1,12.41.76Z"/><path class="cls-2" d="M25.11,35.42H10.89A10.32,10.32,0,0,1,.58,25.11V10.89A10.32,10.32,0,0,1,10.89.58H25.11a10.32,10.32,0,0,1,10.3,10.3V25.11A10.32,10.32,0,0,1,25.11,35.42ZM10.89,2.17a8.73,8.73,0,0,0-8.72,8.72V25.11a8.73,8.73,0,0,0,8.72,8.72H25.11a8.73,8.73,0,0,0,8.72-8.72V10.89a8.73,8.73,0,0,0-8.72-8.72Z" transform="translate(-0.58 -0.58)"/><path class="cls-3" d="M23.58,20.13a4.25,4.25,0,0,0-3.21,1.47L15,18.89a4.24,4.24,0,0,0,0-1.79l5.41-2.71a4.26,4.26,0,1,0-1-1.91L14,15.2a4.27,4.27,0,1,0,0,5.6l5.41,2.71a4.26,4.26,0,1,0,4.17-3.37Zm0-10.66a2.13,2.13,0,1,1-2.13,2.13A2.13,2.13,0,0,1,23.58,9.47ZM10.78,20.13A2.13,2.13,0,1,1,12.91,18,2.13,2.13,0,0,1,10.78,20.13Zm12.8,6.4a2.13,2.13,0,1,1,2.13-2.13A2.13,2.13,0,0,1,23.58,26.53Z" transform="translate(-0.58 -0.58)"/></svg>