<svg id="Layer_1" data-name="Layer 1" xmlns="http://www.w3.org/2000/svg" viewBox="0 0 34.83 34.83"><defs><style>.cls-1{fill:#e30a7d;}</style></defs><title>Share</title><path class="cls-1" d="M25.69,36H11.47a10.32,10.32,0,0,1-10.3-10.3V11.47a10.32,10.32,0,0,1,10.3-10.3H25.69A10.32,10.32,0,0,1,36,11.47V25.69A10.32,10.32,0,0,1,25.69,36ZM11.47,2.75a8.73,8.73,0,0,0-8.72,8.72V25.69a8.73,8.73,0,0,0,8.72,8.72H25.69a8.73,8.73,0,0,0,8.72-8.72V11.47a8.73,8.73,0,0,0-8.72-8.72Z" transform="translate(-1.17 -1.17)"/><path class="cls-1" d="M24.16,20.72a4.25,4.25,0,0,0-3.21,1.47l-5.41-2.71a4.24,4.24,0,0,0,0-1.79L20.95,15a4.26,4.26,0,1,0-1-1.91l-5.41,2.71a4.27,4.27,0,1,0,0,5.6L20,24.09a4.26,4.26,0,1,0,4.17-3.37Zm0-10.66A2.13,2.13,0,1,1,22,12.19,2.13,2.13,0,0,1,24.16,10.05ZM11.36,20.72a2.13,2.13,0,1,1,2.13-2.13A2.13,2.13,0,0,1,11.36,20.72Zm12.8,6.4A2.13,2.13,0,1,1,26.29,25,2.13,2.13,0,0,1,24.16,27.11Z" transform="translate(-1.17 -1.17)"/></svg>