<svg version="1.1" id="digital_logo" xmlns="http://www.w3.org/2000/svg" xmlns:xlink="http://www.w3.org/1999/xlink" x="0px" y="0px" width="842" height="211" viewBox="0 0 842 211">
  <g>
    <title>Di Digital Logo</title>
    <g>
      <g>
        <path d="m366.588013,52.052002l0,20.052002l-55.950989,2.708984l0,-20.321991c0,-4.063995 -0.799011,-5.14801 -4.529022,-5.14801l-5.595001,0c-3.72998,0 -4.79599,1.084015 -4.79599,5.14801l0,102.424988c0,4.064026 1.06601,5.14801 4.79599,5.14801l9.858002,0l-10.125,47.418976l-18.916016,0c-36.501007,0 -46.891998,-10.566956 -46.891998,-47.689972l0,-109.740997c0,-37.122009 10.123993,-50.12799 46.891998,-50.12799l38.632996,0c36.766998,0 46.625031,13.005981 46.625031,50.12799zm0,157.430969l-55.950989,0l0,-73.972961l-3.463013,0l0,-37.122009l59.414978,0l0,111.094971l-0.000977,0z"/>
        <path d="m445.448975,209.482971l-61.279968,0l0,-205.932983l61.279968,0l0,205.932983z"/>
        <path d="m574.932983,50.968994l-29.307983,0l0,158.515015l-61.278992,0l0,-158.515015l-29.308044,0l0,-47.419006l119.89502,0l0,47.419006z"/>
        <path d="m727.067993,209.482971l-67.142029,0l-2.131958,-34.412994l-17.052002,0l-1.86499,34.412994l-67.140991,0l25.843994,-205.93399l103.909973,0l25.578003,205.93399zm-78.598022,-170.978973l-5.594971,99.985992l12.78894,0l-5.595947,-99.985992l-1.598022,0z"/>
        <path d="m799.002014,162.063995l41.562988,0l0,47.418976l-102.843018,0l0,-205.932983l61.279968,0l0,158.514008l0.000061,0z"/>
      </g>
      <rect height="208.19" width="219.498" fill="#B41919" y="1.557" x="1.064"/>
      <path d="m40.389999,59.312012l-8.858002,0l0,-22.035004l55.198013,0c12.973999,0 23.893982,3.5 30.690002,9.675995c11.327972,10.093018 17.092987,30.279022 17.092987,58.703003c0,34.394012 -8.031006,55.817993 -23.889008,63.438019c-7.003998,3.291992 -19.983002,5.556976 -32.543991,5.556976l-46.548004,0l0,-22.035004l8.858002,0l0,-93.303986zm37.893005,93.303986c15.451981,0 18.539993,-8.445984 18.539993,-51.286987c0,-21.832001 -1.649994,-33.368011 -5.561981,-37.89801c-2.468994,-3.29599 -6.58902,-4.321991 -16.478012,-4.118988l0,93.303986l3.5,0z" fill="#FFFFFF"/>
      <path d="m184.489014,152.615997l5.557007,0l0,22.035004l-44.688995,0l0,-22.035004l5.557983,0l0,-56.437012l-5.557983,0l0,-21.826996l39.132996,0l0,78.264008l-0.001007,0zm2.061981,-102.777985c0,10.092987 -7.832001,16.273987 -20.399017,16.273987c-12.556976,0 -20.582977,-6.181976 -20.582977,-16.065979c0,-10.09201 7.822998,-16.274017 20.79599,-16.274017c12.354004,0 20.186005,6.38501 20.186005,16.06601z" fill="#FFFFFF"/>
    </g>
  </g>
</svg>